<svg xmlns="http://www.w3.org/2000/svg" viewBox="0 0 64 64">
  <g fill="#F2B84B">
    <ellipse cx="32" cy="12.5" rx="6.5" ry="11.5" transform="rotate(22.5 32 32)"/>
    <ellipse cx="32" cy="12.5" rx="6.5" ry="11.5" transform="rotate(67.5 32 32)"/>
    <ellipse cx="32" cy="12.5" rx="6.5" ry="11.5" transform="rotate(112.5 32 32)"/>
    <ellipse cx="32" cy="12.5" rx="6.5" ry="11.5" transform="rotate(157.5 32 32)"/>
    <ellipse cx="32" cy="12.5" rx="6.5" ry="11.5" transform="rotate(202.5 32 32)"/>
    <ellipse cx="32" cy="12.5" rx="6.5" ry="11.5" transform="rotate(247.5 32 32)"/>
    <ellipse cx="32" cy="12.5" rx="6.5" ry="11.5" transform="rotate(292.5 32 32)"/>
    <ellipse cx="32" cy="12.5" rx="6.5" ry="11.5" transform="rotate(337.5 32 32)"/>
  </g>
  <g fill="#FFC93C">
    <ellipse cx="32" cy="12" rx="6.5" ry="12"/>
    <ellipse cx="32" cy="12" rx="6.5" ry="12" transform="rotate(45 32 32)"/>
    <ellipse cx="32" cy="12" rx="6.5" ry="12" transform="rotate(90 32 32)"/>
    <ellipse cx="32" cy="12" rx="6.5" ry="12" transform="rotate(135 32 32)"/>
    <ellipse cx="32" cy="12" rx="6.5" ry="12" transform="rotate(180 32 32)"/>
    <ellipse cx="32" cy="12" rx="6.5" ry="12" transform="rotate(225 32 32)"/>
    <ellipse cx="32" cy="12" rx="6.5" ry="12" transform="rotate(270 32 32)"/>
    <ellipse cx="32" cy="12" rx="6.5" ry="12" transform="rotate(315 32 32)"/>
  </g>
  <circle cx="32" cy="32" r="9.5" fill="#6B4423"/>
  <circle cx="29.5" cy="29.5" r="3.5" fill="#8A5A2B" opacity=".8"/>
</svg>
